<svg xmlns="http://www.w3.org/2000/svg" width="79" height="60" viewBox="0 0 79 60">
  <metadata><?xpacket begin="﻿" id="W5M0MpCehiHzreSzNTczkc9d"?>
<x:xmpmeta xmlns:x="adobe:ns:meta/" x:xmptk="Adobe XMP Core 5.6-c142 79.160924, 2017/07/13-01:06:39        ">
   <rdf:RDF xmlns:rdf="http://www.w3.org/1999/02/22-rdf-syntax-ns#">
      <rdf:Description rdf:about=""/>
   </rdf:RDF>
</x:xmpmeta>
                                                                                                    
                                                                                                    
                                                                                                    
                                                                                                    
                                                                                                    
                                                                                                    
                                                                                                    
                                                                                                    
                                                                                                    
                                                                                                    
                                                                                                    
                                                                                                    
                                                                                                    
                                                                                                    
                                                                                                    
                                                                                                    
                                                                                                    
                                                                                                    
                                                                                                    
                                                                                                    
                           
<?xpacket end="w"?></metadata>
<defs>
    <style>
      .cls-1 {
        fill-rule: evenodd;
      }
    </style>
  </defs>
  <path id="Forma_1" data-name="Forma 1" class="cls-1" d="M45.72,46.8H42.964V45.614a2.31,2.31,0,0,0-2.343-2.362H36.709a2.43,2.43,0,0,0-2.483,2.362V46.8H31.61a2.529,2.529,0,0,0-2.585,2.462v8.129a2.649,2.649,0,0,0,2.585,2.6H45.722a2.53,2.53,0,0,0,2.444-2.6V49.262A2.41,2.41,0,0,0,45.72,46.8Zm-4.415,0H35.884V45.614a0.775,0.775,0,0,1,.825-0.7h3.912a0.653,0.653,0,0,1,.684.7V46.8Zm8.639-9.017a0.944,0.944,0,0,0,.246.736,0.956,0.956,0,0,0,.729.3h0.343V57.081a2.82,2.82,0,1,0,5.64,0V38.818H58.23V57.079a2.821,2.821,0,1,0,5.641,0V38.818h0.317a0.959,0.959,0,0,0,.99-1.064l-0.37-5.864a3.915,3.915,0,0,0,3.139-4.406L66.413,16.81a4.829,4.829,0,0,0-4.765-4.156H53.355a4.831,4.831,0,0,0-4.773,4.21l-1.6,12.209-32.17.007a2.82,2.82,0,0,0,0,5.639l35.457-.005ZM57.563,0a5.181,5.181,0,1,1-5.17,5.181A5.175,5.175,0,0,1,57.563,0ZM23.3,16.2a4.813,4.813,0,0,0-4.778,4.229l-0.848,6.857H37.488L36.6,20.4a4.817,4.817,0,0,0-4.775-4.2H23.3ZM27.571,4A5.181,5.181,0,1,1,22.4,9.178,5.175,5.175,0,0,1,27.571,4Z"/>
</svg>
