<svg xmlns="http://www.w3.org/2000/svg" width="79" height="60" viewBox="0 0 79 60">
  <metadata><?xpacket begin="﻿" id="W5M0MpCehiHzreSzNTczkc9d"?>
<x:xmpmeta xmlns:x="adobe:ns:meta/" x:xmptk="Adobe XMP Core 5.6-c142 79.160924, 2017/07/13-01:06:39        ">
   <rdf:RDF xmlns:rdf="http://www.w3.org/1999/02/22-rdf-syntax-ns#">
      <rdf:Description rdf:about=""/>
   </rdf:RDF>
</x:xmpmeta>
                                                                                                    
                                                                                                    
                                                                                                    
                                                                                                    
                                                                                                    
                                                                                                    
                                                                                                    
                                                                                                    
                                                                                                    
                                                                                                    
                                                                                                    
                                                                                                    
                                                                                                    
                                                                                                    
                                                                                                    
                                                                                                    
                                                                                                    
                                                                                                    
                                                                                                    
                                                                                                    
                           
<?xpacket end="w"?></metadata>
<defs>
    <style>
      .cls-1 {
        fill-rule: evenodd;
      }
    </style>
  </defs>
  <path id="Forma_1" data-name="Forma 1" class="cls-1" d="M43.483,38.847c-2.293,3.743-6.816,3.086-8.257.131-3.8,4.139-6.9-.136-6.9-0.136a11.185,11.185,0,0,0,22.226-.273s-5.1,2.97-7.064.279h0ZM39.436,51.369a13.276,13.276,0,1,1,13.25-13.276,13.263,13.263,0,0,1-13.25,13.276h0ZM16,17.142V58.429A1.6,1.6,0,0,0,17.639,60H61.362A1.605,1.605,0,0,0,63,58.429V17.142H16ZM32.408,9.418a2.354,2.354,0,1,1,2.351-2.354,2.353,2.353,0,0,1-2.351,2.354h0Zm-7.76,0A2.354,2.354,0,1,1,27,7.064a2.352,2.352,0,0,1-2.35,2.354h0ZM61.362,0H17.639A1.666,1.666,0,0,0,16,1.695V14.126H63V1.695A1.667,1.667,0,0,0,61.362,0h0Z"/>
</svg>
