<svg xmlns="http://www.w3.org/2000/svg" width="79" height="60" viewBox="0 0 79 60">
  <metadata><?xpacket begin="﻿" id="W5M0MpCehiHzreSzNTczkc9d"?>
<x:xmpmeta xmlns:x="adobe:ns:meta/" x:xmptk="Adobe XMP Core 5.6-c142 79.160924, 2017/07/13-01:06:39        ">
   <rdf:RDF xmlns:rdf="http://www.w3.org/1999/02/22-rdf-syntax-ns#">
      <rdf:Description rdf:about=""/>
   </rdf:RDF>
</x:xmpmeta>
                                                                                                    
                                                                                                    
                                                                                                    
                                                                                                    
                                                                                                    
                                                                                                    
                                                                                                    
                                                                                                    
                                                                                                    
                                                                                                    
                                                                                                    
                                                                                                    
                                                                                                    
                                                                                                    
                                                                                                    
                                                                                                    
                                                                                                    
                                                                                                    
                                                                                                    
                                                                                                    
                           
<?xpacket end="w"?></metadata>
<defs>
    <style>
      .cls-1 {
        fill-rule: evenodd;
      }
    </style>
  </defs>
  <path id="Forma_1" data-name="Forma 1" class="cls-1" d="M52.569,18.638a12.571,12.571,0,1,0-25.142,0c0,10,12.57,24.786,12.57,24.786S52.569,28.582,52.569,18.638ZM33.8,17.884a6.2,6.2,0,1,1,6.2,6.23A6.216,6.216,0,0,1,33.8,17.884ZM40,14.82a3.063,3.063,0,1,1-3.049,3.063A3.056,3.056,0,0,1,40,14.82ZM47.1,39.03c-1.025,1.487-1.986,2.784-2.787,3.825,7.943,0.479,13.149,2.2,15.086,3.485-2.269,1.5-9.011,3.617-19.4,3.617S22.863,47.842,20.594,46.34c1.937-1.281,7.139-3,15.074-3.484-0.8-1.04-1.765-2.336-2.791-3.823C23.1,40,16,42.905,16,46.339c0,4.225,10.744,7.651,24,7.651s23.995-3.425,23.995-7.651C64,42.9,56.889,40,47.1,39.03Z"/>
</svg>
