<svg xmlns="http://www.w3.org/2000/svg" width="79" height="60" viewBox="0 0 79 60">
  <metadata><?xpacket begin="﻿" id="W5M0MpCehiHzreSzNTczkc9d"?>
<x:xmpmeta xmlns:x="adobe:ns:meta/" x:xmptk="Adobe XMP Core 5.6-c142 79.160924, 2017/07/13-01:06:39        ">
   <rdf:RDF xmlns:rdf="http://www.w3.org/1999/02/22-rdf-syntax-ns#">
      <rdf:Description rdf:about=""/>
   </rdf:RDF>
</x:xmpmeta>
                                                                                                    
                                                                                                    
                                                                                                    
                                                                                                    
                                                                                                    
                                                                                                    
                                                                                                    
                                                                                                    
                                                                                                    
                                                                                                    
                                                                                                    
                                                                                                    
                                                                                                    
                                                                                                    
                                                                                                    
                                                                                                    
                                                                                                    
                                                                                                    
                                                                                                    
                                                                                                    
                           
<?xpacket end="w"?></metadata>
<defs>
    <style>
      .cls-1 {
        fill-rule: evenodd;
      }
    </style>
  </defs>
  <path id="Forma_1" data-name="Forma 1" class="cls-1" d="M69.452,27.2H61.516V26.578a1.557,1.557,0,0,0-1.553-1.561h-31.4a1.557,1.557,0,0,0-1.553,1.561V27.2H22.288a11.15,11.15,0,0,0-11-9.612H9.73V27.2H8.017V13.9A3.892,3.892,0,0,0,4.139,10H3.878A3.892,3.892,0,0,0,0,13.9V51H8.017V48.828H70.469V51H79V36.8A9.584,9.584,0,0,0,69.452,27.2Zm0,3.123a6.456,6.456,0,0,1,6.332,5.324H61.516V30.325h7.936Zm-59.722,0H27.014v5.324h-19V30.325H9.73Z"/>
</svg>
