<svg xmlns="http://www.w3.org/2000/svg" width="79" height="60" viewBox="0 0 79 60">
  <metadata><?xpacket begin="﻿" id="W5M0MpCehiHzreSzNTczkc9d"?>
<x:xmpmeta xmlns:x="adobe:ns:meta/" x:xmptk="Adobe XMP Core 5.6-c142 79.160924, 2017/07/13-01:06:39        ">
   <rdf:RDF xmlns:rdf="http://www.w3.org/1999/02/22-rdf-syntax-ns#">
      <rdf:Description rdf:about=""/>
   </rdf:RDF>
</x:xmpmeta>
                                                                                                    
                                                                                                    
                                                                                                    
                                                                                                    
                                                                                                    
                                                                                                    
                                                                                                    
                                                                                                    
                                                                                                    
                                                                                                    
                                                                                                    
                                                                                                    
                                                                                                    
                                                                                                    
                                                                                                    
                                                                                                    
                                                                                                    
                                                                                                    
                                                                                                    
                                                                                                    
                           
<?xpacket end="w"?></metadata>
<defs>
    <style>
      .cls-1 {
        fill-rule: evenodd;
      }
    </style>
  </defs>
  <path id="Forma_1" data-name="Forma 1" class="cls-1" d="M53.822,40.4A32.162,32.162,0,0,1,48.6,37.961a1.646,1.646,0,0,0-2.023.2l0,0c-1.912,1.87-5.445,2.433-6.648,2.433l-0.422,0-0.422,0c-1.2,0-4.737-.563-6.648-2.433l0,0a1.646,1.646,0,0,0-2.022-.2A32.166,32.166,0,0,1,25.175,40.4C18.847,42.683,16,45.01,16,46.6V57H63V46.6C63,45.01,60.15,42.683,53.822,40.4ZM49.614,20.63a44.046,44.046,0,0,0,.657-4.467c0.192-2.553,3.4-6.194,1.991-6.194a17.556,17.556,0,0,1-6.824-1.585c-2.062-.868-3.86-4.39-5.827-4.39h-0.1c-1.967,0-3.764,3.521-5.827,4.39a17.55,17.55,0,0,1-6.824,1.585c-1.411,0,1.8,3.641,1.991,6.194a44.078,44.078,0,0,0,.657,4.467s-0.929.424-.929,2.13C28.9,27.04,30.6,25.2,30.956,27.071a9.313,9.313,0,0,0,5.059,6.151,7.793,7.793,0,0,0,3.546.7,7.794,7.794,0,0,0,3.546-.7,9.314,9.314,0,0,0,5.059-6.151c0.351-1.875,2.052-.031,2.378-4.311C50.543,21.054,49.614,20.63,49.614,20.63Zm-7.582-9.518a3.035,3.035,0,0,1-2.472,2.415,3.035,3.035,0,0,1-2.472-2.415V9.444c0-.008,0-0.015,0-0.023s0,0,0-.007a0.738,0.738,0,0,1,.7-0.737l0.015,0h1.766l1.723,0,0.033,0a0.7,0.7,0,0,1,.7.626c0,0.006,0,.013,0,0.02s0,0.024,0,.036,0,0.025,0,.039C42.032,9.828,42.032,10.569,42.032,11.112Z"/>
</svg>
