<svg xmlns="http://www.w3.org/2000/svg" width="79" height="60" viewBox="0 0 79 60">
  <metadata><?xpacket begin="﻿" id="W5M0MpCehiHzreSzNTczkc9d"?>
<x:xmpmeta xmlns:x="adobe:ns:meta/" x:xmptk="Adobe XMP Core 5.6-c142 79.160924, 2017/07/13-01:06:39        ">
   <rdf:RDF xmlns:rdf="http://www.w3.org/1999/02/22-rdf-syntax-ns#">
      <rdf:Description rdf:about=""/>
   </rdf:RDF>
</x:xmpmeta>
                                                                                                    
                                                                                                    
                                                                                                    
                                                                                                    
                                                                                                    
                                                                                                    
                                                                                                    
                                                                                                    
                                                                                                    
                                                                                                    
                                                                                                    
                                                                                                    
                                                                                                    
                                                                                                    
                                                                                                    
                                                                                                    
                                                                                                    
                                                                                                    
                                                                                                    
                                                                                                    
                           
<?xpacket end="w"?></metadata>
<defs>
    <style>
      .cls-1 {
        fill-rule: evenodd;
      }
    </style>
  </defs>
  <path id="Forma_1" data-name="Forma 1" class="cls-1" d="M32.6,17.493h3.052V4h7.668V17.493h3.05A10.879,10.879,0,0,1,57.281,28.342H21.69A10.879,10.879,0,0,1,32.6,17.493ZM20.51,53.8l-0.016.035a1.808,1.808,0,0,1-1.686,1.139,1.839,1.839,0,0,1-.671-0.131,1.8,1.8,0,0,1-1.013-2.347,1.826,1.826,0,0,1,2.367-1.021A1.773,1.773,0,0,1,20.51,53.8Zm2.508-6.825L23,47.007a1.809,1.809,0,0,1-1.686,1.138,1.814,1.814,0,0,1-1.685-2.477A1.832,1.832,0,0,1,22,44.643,1.78,1.78,0,0,1,23.019,46.973ZM25.58,40l-0.01.041a1.808,1.808,0,0,1-1.738,1.284,1.837,1.837,0,0,1-.522-0.072A1.819,1.819,0,1,1,25.58,40Zm0.756-5.5a1.772,1.772,0,0,1-.671-0.132,1.8,1.8,0,0,1-1.012-2.344,1.838,1.838,0,0,1,2.37-1.025,1.78,1.78,0,0,1,1.015,2.331l-0.014.038A1.826,1.826,0,0,1,26.336,34.5Zm4.645,20.082A1.815,1.815,0,0,1,29.2,56.034,1.4,1.4,0,0,1,28.845,56a1.8,1.8,0,0,1-1.428-2.125,1.832,1.832,0,0,1,2.143-1.435,1.789,1.789,0,0,1,1.431,2.108Zm1.156-7.349a1.813,1.813,0,0,1-1.806,1.628,1.706,1.706,0,0,1-.184-0.007,1.817,1.817,0,0,1,.362-3.616,1.791,1.791,0,0,1,1.631,1.96Zm1.093-7a1.81,1.81,0,0,1-1.777,1.452,1.593,1.593,0,0,1-.361-0.038,1.8,1.8,0,0,1-1.426-2.125,1.829,1.829,0,0,1,2.143-1.435,1.792,1.792,0,0,1,1.43,2.112Zm1.124-7.181A1.816,1.816,0,0,1,32.577,34.5a1.762,1.762,0,0,1-.359-0.035,1.8,1.8,0,0,1-1.43-2.125A1.839,1.839,0,0,1,32.931,30.9a1.788,1.788,0,0,1,1.433,2.107Zm6.952,22.149a1.811,1.811,0,1,1,0-.021v0.021Zm0-7.491a1.819,1.819,0,0,1-3.638,0,1.833,1.833,0,0,1,1.82-1.832,1.8,1.8,0,0,1,1.818,1.794V47.7Zm0-7.512a1.819,1.819,0,1,1-1.818-1.829,1.8,1.8,0,0,1,1.818,1.787v0.042Zm0-7.519a1.808,1.808,0,1,1,0-.017V32.67Zm3.317,0.373a1.815,1.815,0,0,1,3.553-.741l0.01,0.034a1.808,1.808,0,0,1-1.429,2.129,1.73,1.73,0,0,1-.358.034A1.819,1.819,0,0,1,44.622,33.043Zm1.124,7.181a1.815,1.815,0,0,1,3.553-.742l0.007,0.035A1.815,1.815,0,0,1,45.747,40.224Zm1.09,7a1.821,1.821,0,0,1,1.63-1.991,1.785,1.785,0,0,1,1.985,1.6l0,0.035a1.811,1.811,0,0,1-1.627,1.981,1.764,1.764,0,0,1-.184.014A1.83,1.83,0,0,1,46.836,47.228ZM50.126,56a1.552,1.552,0,0,1-.361.041,1.818,1.818,0,1,1,1.783-2.2l0.007,0.038A1.8,1.8,0,0,1,50.126,56Zm2.512-21.5a1.816,1.816,0,1,1,1.669-2.512l0.014,0.036a1.8,1.8,0,0,1-1.01,2.344A1.781,1.781,0,0,1,52.638,34.5Zm2.505,6.825a1.816,1.816,0,1,1,1.735-2.361L56.885,39a1.8,1.8,0,0,1-1.215,2.25A1.782,1.782,0,0,1,55.143,41.321Zm2.512,6.825a1.817,1.817,0,1,1,1.669-2.515l0.014,0.038a1.8,1.8,0,0,1-1.013,2.346A1.754,1.754,0,0,1,57.655,48.146Zm3.182,6.695a1.85,1.85,0,0,1-.67.131,1.816,1.816,0,0,1-.684-3.5,1.787,1.787,0,0,1,2.353.983l0.014,0.038A1.8,1.8,0,0,1,60.837,54.84Z"/>
</svg>
