<svg xmlns="http://www.w3.org/2000/svg" width="79" height="60" viewBox="0 0 79 60">
  <metadata><?xpacket begin="﻿" id="W5M0MpCehiHzreSzNTczkc9d"?>
<x:xmpmeta xmlns:x="adobe:ns:meta/" x:xmptk="Adobe XMP Core 5.6-c142 79.160924, 2017/07/13-01:06:39        ">
   <rdf:RDF xmlns:rdf="http://www.w3.org/1999/02/22-rdf-syntax-ns#">
      <rdf:Description rdf:about=""/>
   </rdf:RDF>
</x:xmpmeta>
                                                                                                    
                                                                                                    
                                                                                                    
                                                                                                    
                                                                                                    
                                                                                                    
                                                                                                    
                                                                                                    
                                                                                                    
                                                                                                    
                                                                                                    
                                                                                                    
                                                                                                    
                                                                                                    
                                                                                                    
                                                                                                    
                                                                                                    
                                                                                                    
                                                                                                    
                                                                                                    
                           
<?xpacket end="w"?></metadata>
<defs>
    <style>
      .cls-1 {
        fill: #282828;
        fill-rule: evenodd;
      }
    </style>
  </defs>
  <path id="Forma_1" data-name="Forma 1" class="cls-1" d="M39.5,38.98a4.5,4.5,0,1,0,4.472,4.5A4.488,4.488,0,0,0,39.5,38.98ZM63.461,23.25a31.119,31.119,0,0,0-47.927,0,2.257,2.257,0,0,0,.274,3.169,2.225,2.225,0,0,0,3.15-.274,26.666,26.666,0,0,1,41.078,0,2.227,2.227,0,0,0,3.151.274A2.257,2.257,0,0,0,63.461,23.25ZM39.5,20.984a22.27,22.27,0,0,0-17.116,8.044,2.257,2.257,0,0,0,.274,3.169,2.225,2.225,0,0,0,3.15-.275,17.778,17.778,0,0,1,27.385,0,2.225,2.225,0,0,0,3.149.275,2.257,2.257,0,0,0,.273-3.169A22.271,22.271,0,0,0,39.5,20.984Zm0,9a13.356,13.356,0,0,0-10.27,4.827,2.259,2.259,0,0,0,.274,3.17,2.229,2.229,0,0,0,3.15-.276,8.883,8.883,0,0,1,13.691,0,2.229,2.229,0,0,0,3.151.276,2.26,2.26,0,0,0,.275-3.17A13.359,13.359,0,0,0,39.5,29.983Z"/>
</svg>
